<mxfile host="app.diagrams.net" agent="Mozilla/5.0 (Windows NT 10.0; Win64; x64) AppleWebKit/537.36 (KHTML, like Gecko) Chrome/136.0.0.0 Safari/537.36" version="27.0.9">
  <diagram name="PÃ¡gina-1" id="Nl4ZTAw9vxExvoFzS4Dj">
    <mxGraphModel dx="1426" dy="869" grid="1" gridSize="10" guides="1" tooltips="1" connect="1" arrows="1" fold="1" page="1" pageScale="1" pageWidth="827" pageHeight="1169" math="0" shadow="0">
      <root>
        <mxCell id="0" />
        <mxCell id="1" parent="0" />
        <mxCell id="7LJvkFui3SoWYNUcTDe1-3" value="Course" style="whiteSpace=wrap;html=1;align=center;" vertex="1" parent="1">
          <mxGeometry x="382" y="300" width="100" height="40" as="geometry" />
        </mxCell>
        <mxCell id="7LJvkFui3SoWYNUcTDe1-4" value="Contain" style="shape=rhombus;perimeter=rhombusPerimeter;whiteSpace=wrap;html=1;align=center;" vertex="1" parent="1">
          <mxGeometry x="380" y="410" width="104" height="50" as="geometry" />
        </mxCell>
        <mxCell id="7LJvkFui3SoWYNUcTDe1-5" value="Lesson" style="whiteSpace=wrap;html=1;align=center;" vertex="1" parent="1">
          <mxGeometry x="380" y="510" width="100" height="40" as="geometry" />
        </mxCell>
        <mxCell id="7LJvkFui3SoWYNUcTDe1-6" value="" style="endArrow=none;html=1;rounded=0;exitX=0.5;exitY=1;exitDx=0;exitDy=0;entryX=0.5;entryY=0;entryDx=0;entryDy=0;" edge="1" parent="1" source="7LJvkFui3SoWYNUcTDe1-3" target="7LJvkFui3SoWYNUcTDe1-4">
          <mxGeometry relative="1" as="geometry">
            <mxPoint x="430" y="360" as="sourcePoint" />
            <mxPoint x="590" y="360" as="targetPoint" />
          </mxGeometry>
        </mxCell>
        <mxCell id="7LJvkFui3SoWYNUcTDe1-7" value="" style="endArrow=none;html=1;rounded=0;exitX=0.5;exitY=1;exitDx=0;exitDy=0;entryX=0.5;entryY=0;entryDx=0;entryDy=0;" edge="1" parent="1" source="7LJvkFui3SoWYNUcTDe1-4" target="7LJvkFui3SoWYNUcTDe1-5">
          <mxGeometry relative="1" as="geometry">
            <mxPoint x="440" y="480" as="sourcePoint" />
            <mxPoint x="600" y="480" as="targetPoint" />
          </mxGeometry>
        </mxCell>
        <mxCell id="7LJvkFui3SoWYNUcTDe1-8" value="1" style="text;html=1;align=center;verticalAlign=middle;whiteSpace=wrap;rounded=0;" vertex="1" parent="1">
          <mxGeometry x="430" y="340" width="30" height="30" as="geometry" />
        </mxCell>
        <mxCell id="7LJvkFui3SoWYNUcTDe1-9" value="M" style="text;html=1;align=center;verticalAlign=middle;whiteSpace=wrap;rounded=0;" vertex="1" parent="1">
          <mxGeometry x="430" y="480" width="30" height="30" as="geometry" />
        </mxCell>
        <mxCell id="7LJvkFui3SoWYNUcTDe1-10" value="Theme" style="whiteSpace=wrap;html=1;align=center;" vertex="1" parent="1">
          <mxGeometry x="200" y="410" width="100" height="40" as="geometry" />
        </mxCell>
        <mxCell id="7LJvkFui3SoWYNUcTDe1-11" value="Author" style="whiteSpace=wrap;html=1;align=center;" vertex="1" parent="1">
          <mxGeometry x="630" y="400" width="100" height="40" as="geometry" />
        </mxCell>
        <mxCell id="7LJvkFui3SoWYNUcTDe1-12" value="" style="endArrow=none;html=1;rounded=0;exitX=1;exitY=0.5;exitDx=0;exitDy=0;entryX=0;entryY=0.5;entryDx=0;entryDy=0;" edge="1" parent="1" source="7LJvkFui3SoWYNUcTDe1-3" target="7LJvkFui3SoWYNUcTDe1-16">
          <mxGeometry relative="1" as="geometry">
            <mxPoint x="550" y="340" as="sourcePoint" />
            <mxPoint x="560" y="340" as="targetPoint" />
          </mxGeometry>
        </mxCell>
        <mxCell id="7LJvkFui3SoWYNUcTDe1-13" value="N" style="text;html=1;align=center;verticalAlign=middle;whiteSpace=wrap;rounded=0;" vertex="1" parent="1">
          <mxGeometry x="484" y="290" width="30" height="30" as="geometry" />
        </mxCell>
        <mxCell id="7LJvkFui3SoWYNUcTDe1-14" value="M" style="text;html=1;align=center;verticalAlign=middle;whiteSpace=wrap;rounded=0;" vertex="1" parent="1">
          <mxGeometry x="690" y="370" width="30" height="30" as="geometry" />
        </mxCell>
        <mxCell id="7LJvkFui3SoWYNUcTDe1-16" value="Have" style="shape=rhombus;perimeter=rhombusPerimeter;whiteSpace=wrap;html=1;align=center;" vertex="1" parent="1">
          <mxGeometry x="610" y="290" width="120" height="60" as="geometry" />
        </mxCell>
        <mxCell id="7LJvkFui3SoWYNUcTDe1-18" value="" style="endArrow=none;html=1;rounded=0;exitX=0.5;exitY=1;exitDx=0;exitDy=0;entryX=0.5;entryY=0;entryDx=0;entryDy=0;" edge="1" parent="1" source="7LJvkFui3SoWYNUcTDe1-16" target="7LJvkFui3SoWYNUcTDe1-11">
          <mxGeometry relative="1" as="geometry">
            <mxPoint x="670" y="390" as="sourcePoint" />
            <mxPoint x="850" y="390" as="targetPoint" />
          </mxGeometry>
        </mxCell>
        <mxCell id="7LJvkFui3SoWYNUcTDe1-19" value="Made" style="shape=rhombus;perimeter=rhombusPerimeter;whiteSpace=wrap;html=1;align=center;" vertex="1" parent="1">
          <mxGeometry x="610" y="500" width="120" height="60" as="geometry" />
        </mxCell>
        <mxCell id="7LJvkFui3SoWYNUcTDe1-21" value="" style="endArrow=none;html=1;rounded=0;exitX=1;exitY=0.5;exitDx=0;exitDy=0;" edge="1" parent="1" source="7LJvkFui3SoWYNUcTDe1-5">
          <mxGeometry relative="1" as="geometry">
            <mxPoint x="490" y="530" as="sourcePoint" />
            <mxPoint x="610" y="530" as="targetPoint" />
          </mxGeometry>
        </mxCell>
        <mxCell id="7LJvkFui3SoWYNUcTDe1-22" value="" style="endArrow=none;html=1;rounded=0;exitX=0.5;exitY=0;exitDx=0;exitDy=0;entryX=0.44;entryY=1.05;entryDx=0;entryDy=0;entryPerimeter=0;" edge="1" parent="1" source="7LJvkFui3SoWYNUcTDe1-19" target="7LJvkFui3SoWYNUcTDe1-11">
          <mxGeometry relative="1" as="geometry">
            <mxPoint x="690" y="500" as="sourcePoint" />
            <mxPoint x="850" y="500" as="targetPoint" />
          </mxGeometry>
        </mxCell>
        <mxCell id="7LJvkFui3SoWYNUcTDe1-23" value="1" style="text;html=1;align=center;verticalAlign=middle;whiteSpace=wrap;rounded=0;" vertex="1" parent="1">
          <mxGeometry x="680" y="440" width="30" height="30" as="geometry" />
        </mxCell>
        <mxCell id="7LJvkFui3SoWYNUcTDe1-24" value="M" style="text;html=1;align=center;verticalAlign=middle;whiteSpace=wrap;rounded=0;" vertex="1" parent="1">
          <mxGeometry x="484" y="500" width="30" height="30" as="geometry" />
        </mxCell>
        <mxCell id="7LJvkFui3SoWYNUcTDe1-25" value="Have" style="shape=rhombus;perimeter=rhombusPerimeter;whiteSpace=wrap;html=1;align=center;" vertex="1" parent="1">
          <mxGeometry x="200" y="290" width="120" height="60" as="geometry" />
        </mxCell>
        <mxCell id="7LJvkFui3SoWYNUcTDe1-26" value="" style="endArrow=none;html=1;rounded=0;entryX=0;entryY=0.5;entryDx=0;entryDy=0;" edge="1" parent="1" target="7LJvkFui3SoWYNUcTDe1-3">
          <mxGeometry relative="1" as="geometry">
            <mxPoint x="320" y="320" as="sourcePoint" />
            <mxPoint x="480" y="320" as="targetPoint" />
          </mxGeometry>
        </mxCell>
        <mxCell id="7LJvkFui3SoWYNUcTDe1-27" value="" style="endArrow=none;html=1;rounded=0;entryX=0.5;entryY=0;entryDx=0;entryDy=0;" edge="1" parent="1" target="7LJvkFui3SoWYNUcTDe1-10">
          <mxGeometry relative="1" as="geometry">
            <mxPoint x="260" y="350" as="sourcePoint" />
            <mxPoint x="420" y="350" as="targetPoint" />
          </mxGeometry>
        </mxCell>
        <mxCell id="7LJvkFui3SoWYNUcTDe1-28" value="N" style="text;html=1;align=center;verticalAlign=middle;whiteSpace=wrap;rounded=0;" vertex="1" parent="1">
          <mxGeometry x="352" y="290" width="30" height="30" as="geometry" />
        </mxCell>
        <mxCell id="7LJvkFui3SoWYNUcTDe1-29" value="M" style="text;html=1;align=center;verticalAlign=middle;whiteSpace=wrap;rounded=0;" vertex="1" parent="1">
          <mxGeometry x="250" y="380" width="30" height="30" as="geometry" />
        </mxCell>
        <mxCell id="7LJvkFui3SoWYNUcTDe1-30" value="Have" style="shape=rhombus;perimeter=rhombusPerimeter;whiteSpace=wrap;html=1;align=center;" vertex="1" parent="1">
          <mxGeometry x="800" y="390" width="120" height="60" as="geometry" />
        </mxCell>
        <mxCell id="7LJvkFui3SoWYNUcTDe1-31" value="SocialMedia" style="whiteSpace=wrap;html=1;align=center;" vertex="1" parent="1">
          <mxGeometry x="810" y="300" width="100" height="40" as="geometry" />
        </mxCell>
        <mxCell id="7LJvkFui3SoWYNUcTDe1-32" value="" style="endArrow=none;html=1;rounded=0;" edge="1" parent="1" target="7LJvkFui3SoWYNUcTDe1-30">
          <mxGeometry relative="1" as="geometry">
            <mxPoint x="730" y="420" as="sourcePoint" />
            <mxPoint x="890" y="420" as="targetPoint" />
          </mxGeometry>
        </mxCell>
        <mxCell id="7LJvkFui3SoWYNUcTDe1-33" value="" style="endArrow=none;html=1;rounded=0;entryX=0.5;entryY=1;entryDx=0;entryDy=0;" edge="1" parent="1" target="7LJvkFui3SoWYNUcTDe1-31">
          <mxGeometry relative="1" as="geometry">
            <mxPoint x="860" y="390" as="sourcePoint" />
            <mxPoint x="870" y="350" as="targetPoint" />
          </mxGeometry>
        </mxCell>
        <mxCell id="7LJvkFui3SoWYNUcTDe1-34" value="N" style="text;html=1;align=center;verticalAlign=middle;whiteSpace=wrap;rounded=0;" vertex="1" parent="1">
          <mxGeometry x="740" y="390" width="30" height="30" as="geometry" />
        </mxCell>
        <mxCell id="7LJvkFui3SoWYNUcTDe1-35" value="M" style="text;html=1;align=center;verticalAlign=middle;whiteSpace=wrap;rounded=0;" vertex="1" parent="1">
          <mxGeometry x="860" y="340" width="30" height="30" as="geometry" />
        </mxCell>
        <mxCell id="7LJvkFui3SoWYNUcTDe1-36" value="Video" style="whiteSpace=wrap;html=1;align=center;" vertex="1" parent="1">
          <mxGeometry x="250" y="770" width="100" height="40" as="geometry" />
        </mxCell>
        <mxCell id="7LJvkFui3SoWYNUcTDe1-37" value="Article" style="whiteSpace=wrap;html=1;align=center;" vertex="1" parent="1">
          <mxGeometry x="490" y="700" width="100" height="40" as="geometry" />
        </mxCell>
        <mxCell id="7LJvkFui3SoWYNUcTDe1-38" value="Contain" style="shape=rhombus;perimeter=rhombusPerimeter;whiteSpace=wrap;html=1;align=center;" vertex="1" parent="1">
          <mxGeometry x="242" y="600" width="120" height="60" as="geometry" />
        </mxCell>
        <mxCell id="7LJvkFui3SoWYNUcTDe1-39" value="Contain" style="shape=rhombus;perimeter=rhombusPerimeter;whiteSpace=wrap;html=1;align=center;" vertex="1" parent="1">
          <mxGeometry x="480" y="600" width="120" height="60" as="geometry" />
        </mxCell>
        <mxCell id="7LJvkFui3SoWYNUcTDe1-40" value="" style="endArrow=none;html=1;rounded=0;exitX=0;exitY=1;exitDx=0;exitDy=0;entryX=0.5;entryY=0;entryDx=0;entryDy=0;" edge="1" parent="1" source="7LJvkFui3SoWYNUcTDe1-5" target="7LJvkFui3SoWYNUcTDe1-38">
          <mxGeometry relative="1" as="geometry">
            <mxPoint x="410" y="570" as="sourcePoint" />
            <mxPoint x="570" y="570" as="targetPoint" />
          </mxGeometry>
        </mxCell>
        <mxCell id="7LJvkFui3SoWYNUcTDe1-41" value="" style="endArrow=none;html=1;rounded=0;entryX=0.5;entryY=0;entryDx=0;entryDy=0;" edge="1" parent="1" target="7LJvkFui3SoWYNUcTDe1-39">
          <mxGeometry relative="1" as="geometry">
            <mxPoint x="480" y="550" as="sourcePoint" />
            <mxPoint x="640" y="550" as="targetPoint" />
          </mxGeometry>
        </mxCell>
        <mxCell id="7LJvkFui3SoWYNUcTDe1-42" value="" style="endArrow=none;html=1;rounded=0;entryX=0.5;entryY=0;entryDx=0;entryDy=0;" edge="1" parent="1" target="7LJvkFui3SoWYNUcTDe1-36">
          <mxGeometry relative="1" as="geometry">
            <mxPoint x="300" y="660" as="sourcePoint" />
            <mxPoint x="460" y="660" as="targetPoint" />
          </mxGeometry>
        </mxCell>
        <mxCell id="7LJvkFui3SoWYNUcTDe1-43" value="" style="endArrow=none;html=1;rounded=0;entryX=0.5;entryY=0;entryDx=0;entryDy=0;" edge="1" parent="1" target="7LJvkFui3SoWYNUcTDe1-37">
          <mxGeometry relative="1" as="geometry">
            <mxPoint x="540" y="660" as="sourcePoint" />
            <mxPoint x="700" y="660" as="targetPoint" />
          </mxGeometry>
        </mxCell>
        <mxCell id="7LJvkFui3SoWYNUcTDe1-44" value="Made" style="shape=rhombus;perimeter=rhombusPerimeter;whiteSpace=wrap;html=1;align=center;" vertex="1" parent="1">
          <mxGeometry x="695" y="620" width="120" height="60" as="geometry" />
        </mxCell>
        <mxCell id="7LJvkFui3SoWYNUcTDe1-45" value="Made" style="shape=rhombus;perimeter=rhombusPerimeter;whiteSpace=wrap;html=1;align=center;" vertex="1" parent="1">
          <mxGeometry x="890" y="740" width="120" height="60" as="geometry" />
        </mxCell>
        <mxCell id="7LJvkFui3SoWYNUcTDe1-46" value="" style="endArrow=none;html=1;rounded=0;" edge="1" parent="1" target="7LJvkFui3SoWYNUcTDe1-45">
          <mxGeometry relative="1" as="geometry">
            <mxPoint x="350" y="790" as="sourcePoint" />
            <mxPoint x="510" y="790" as="targetPoint" />
          </mxGeometry>
        </mxCell>
        <mxCell id="7LJvkFui3SoWYNUcTDe1-47" value="" style="endArrow=none;html=1;rounded=0;entryX=1;entryY=1;entryDx=0;entryDy=0;exitX=0.5;exitY=0;exitDx=0;exitDy=0;" edge="1" parent="1" source="7LJvkFui3SoWYNUcTDe1-45" target="7LJvkFui3SoWYNUcTDe1-11">
          <mxGeometry relative="1" as="geometry">
            <mxPoint x="880" y="750" as="sourcePoint" />
            <mxPoint x="1040" y="750" as="targetPoint" />
          </mxGeometry>
        </mxCell>
        <mxCell id="7LJvkFui3SoWYNUcTDe1-48" value="1" style="text;html=1;align=center;verticalAlign=middle;whiteSpace=wrap;rounded=0;" vertex="1" parent="1">
          <mxGeometry x="352" y="765" width="30" height="30" as="geometry" />
        </mxCell>
        <mxCell id="7LJvkFui3SoWYNUcTDe1-49" value="M" style="text;html=1;align=center;verticalAlign=middle;whiteSpace=wrap;rounded=0;" vertex="1" parent="1">
          <mxGeometry x="770" y="470" width="30" height="30" as="geometry" />
        </mxCell>
        <mxCell id="7LJvkFui3SoWYNUcTDe1-50" value="" style="endArrow=none;html=1;rounded=0;entryX=1;entryY=1;entryDx=0;entryDy=0;" edge="1" parent="1" target="7LJvkFui3SoWYNUcTDe1-11">
          <mxGeometry relative="1" as="geometry">
            <mxPoint x="750" y="620" as="sourcePoint" />
            <mxPoint x="730" y="450" as="targetPoint" />
          </mxGeometry>
        </mxCell>
        <mxCell id="7LJvkFui3SoWYNUcTDe1-51" value="M" style="text;html=1;align=center;verticalAlign=middle;whiteSpace=wrap;rounded=0;" vertex="1" parent="1">
          <mxGeometry x="740" y="550" width="30" height="30" as="geometry" />
        </mxCell>
        <mxCell id="7LJvkFui3SoWYNUcTDe1-52" value="" style="endArrow=none;html=1;rounded=0;entryX=0.5;entryY=1;entryDx=0;entryDy=0;" edge="1" parent="1" target="7LJvkFui3SoWYNUcTDe1-44">
          <mxGeometry relative="1" as="geometry">
            <mxPoint x="590" y="720" as="sourcePoint" />
            <mxPoint x="750" y="720" as="targetPoint" />
          </mxGeometry>
        </mxCell>
        <mxCell id="7LJvkFui3SoWYNUcTDe1-53" value="1" style="text;html=1;align=center;verticalAlign=middle;whiteSpace=wrap;rounded=0;" vertex="1" parent="1">
          <mxGeometry x="590" y="680" width="30" height="30" as="geometry" />
        </mxCell>
        <mxCell id="7LJvkFui3SoWYNUcTDe1-54" value="1" style="text;html=1;align=center;verticalAlign=middle;whiteSpace=wrap;rounded=0;" vertex="1" parent="1">
          <mxGeometry x="370" y="550" width="30" height="30" as="geometry" />
        </mxCell>
        <mxCell id="7LJvkFui3SoWYNUcTDe1-55" value="1" style="text;html=1;align=center;verticalAlign=middle;whiteSpace=wrap;rounded=0;" vertex="1" parent="1">
          <mxGeometry x="484" y="540" width="30" height="30" as="geometry" />
        </mxCell>
        <mxCell id="7LJvkFui3SoWYNUcTDe1-56" value="M" style="text;html=1;align=center;verticalAlign=middle;whiteSpace=wrap;rounded=0;" vertex="1" parent="1">
          <mxGeometry x="300" y="740" width="30" height="30" as="geometry" />
        </mxCell>
        <mxCell id="7LJvkFui3SoWYNUcTDe1-57" value="M" style="text;html=1;align=center;verticalAlign=middle;whiteSpace=wrap;rounded=0;" vertex="1" parent="1">
          <mxGeometry x="540" y="670" width="30" height="30" as="geometry" />
        </mxCell>
        <mxCell id="7LJvkFui3SoWYNUcTDe1-58" value="Have" style="shape=rhombus;perimeter=rhombusPerimeter;whiteSpace=wrap;html=1;align=center;" vertex="1" parent="1">
          <mxGeometry x="20" y="750" width="120" height="60" as="geometry" />
        </mxCell>
        <mxCell id="7LJvkFui3SoWYNUcTDe1-59" value="Have" style="shape=rhombus;perimeter=rhombusPerimeter;whiteSpace=wrap;html=1;align=center;" vertex="1" parent="1">
          <mxGeometry x="140" y="660" width="120" height="60" as="geometry" />
        </mxCell>
        <mxCell id="7LJvkFui3SoWYNUcTDe1-60" value="" style="endArrow=none;html=1;rounded=0;entryX=1;entryY=0.5;entryDx=0;entryDy=0;" edge="1" parent="1" target="7LJvkFui3SoWYNUcTDe1-59">
          <mxGeometry relative="1" as="geometry">
            <mxPoint x="490" y="720" as="sourcePoint" />
            <mxPoint x="650" y="720" as="targetPoint" />
          </mxGeometry>
        </mxCell>
        <mxCell id="7LJvkFui3SoWYNUcTDe1-61" value="" style="endArrow=none;html=1;rounded=0;exitX=1;exitY=0.5;exitDx=0;exitDy=0;entryX=0;entryY=0.5;entryDx=0;entryDy=0;" edge="1" parent="1" source="7LJvkFui3SoWYNUcTDe1-58" target="7LJvkFui3SoWYNUcTDe1-36">
          <mxGeometry relative="1" as="geometry">
            <mxPoint x="170" y="780" as="sourcePoint" />
            <mxPoint x="330" y="780" as="targetPoint" />
          </mxGeometry>
        </mxCell>
        <mxCell id="7LJvkFui3SoWYNUcTDe1-62" value="" style="endArrow=none;html=1;rounded=0;entryX=0;entryY=1;entryDx=0;entryDy=0;" edge="1" parent="1" target="7LJvkFui3SoWYNUcTDe1-10">
          <mxGeometry relative="1" as="geometry">
            <mxPoint x="80" y="750" as="sourcePoint" />
            <mxPoint x="240" y="750" as="targetPoint" />
          </mxGeometry>
        </mxCell>
        <mxCell id="7LJvkFui3SoWYNUcTDe1-63" value="" style="endArrow=none;html=1;rounded=0;exitX=0.5;exitY=0;exitDx=0;exitDy=0;entryX=0.5;entryY=1;entryDx=0;entryDy=0;" edge="1" parent="1" source="7LJvkFui3SoWYNUcTDe1-59" target="7LJvkFui3SoWYNUcTDe1-10">
          <mxGeometry relative="1" as="geometry">
            <mxPoint x="220" y="580" as="sourcePoint" />
            <mxPoint x="380" y="580" as="targetPoint" />
          </mxGeometry>
        </mxCell>
        <mxCell id="7LJvkFui3SoWYNUcTDe1-64" value="1" style="text;html=1;align=center;verticalAlign=middle;whiteSpace=wrap;rounded=0;" vertex="1" parent="1">
          <mxGeometry x="460" y="680" width="30" height="30" as="geometry" />
        </mxCell>
        <mxCell id="7LJvkFui3SoWYNUcTDe1-65" value="1" style="text;html=1;align=center;verticalAlign=middle;whiteSpace=wrap;rounded=0;" vertex="1" parent="1">
          <mxGeometry x="220" y="765" width="30" height="30" as="geometry" />
        </mxCell>
        <mxCell id="7LJvkFui3SoWYNUcTDe1-66" value="M" style="text;html=1;align=center;verticalAlign=middle;whiteSpace=wrap;rounded=0;" vertex="1" parent="1">
          <mxGeometry x="250" y="450" width="30" height="30" as="geometry" />
        </mxCell>
        <mxCell id="7LJvkFui3SoWYNUcTDe1-67" value="M" style="text;html=1;align=center;verticalAlign=middle;whiteSpace=wrap;rounded=0;" vertex="1" parent="1">
          <mxGeometry x="190" y="450" width="50" height="30" as="geometry" />
        </mxCell>
      </root>
    </mxGraphModel>
  </diagram>
</mxfile>
